# xmcd
#
# Track frame offsets: 
#        150
#        14897
#        38894
#        60292
#        82880
#        109489
#        150239
#        173256
#        200946
#        237472
#        300413
#        323380
#        336683
#
# Disc length: 4759 seconds
#
# Revision: 0
# Processed by: cddbd v1.5.2PL0 Copyright (c) Steve Scherf et al.
# Submitted via: ExactAudioCopy v1.1
#
DISCID=a512950d
DTITLE=Stevie Ray Vaughan - 1987-6-30 Philadelphia - Blues You Can Use
DTITLE=[Hobo]
DYEAR=1987
DGENRE=Blues
TTITLE0=Scuttle Buttin'
TTITLE1=Say What
TTITLE2=Lookin' Out The Window
TTITLE3=Look At Little Sister
TTITLE4=Mary Had A Little Lamb
TTITLE5=Ain't Gone 'n' Give Up On Love
TTITLE6=Superstition
TTITLE7=Cold Shot
TTITLE8=Couldn't Stand The Weather
TTITLE9=Life Without You
TTITLE10=Come On (Part III)
TTITLE11=Love Struck Baby
TTITLE12=Rude Mood
EXTD=
EXTT0=
EXTT1=
EXTT2=
EXTT3=
EXTT4=
EXTT5=
EXTT6=
EXTT7=
EXTT8=
EXTT9=
EXTT10=
EXTT11=
EXTT12=
PLAYORDER=
